<svg width="30" height="30" viewBox="0 0 30 30" fill="none" xmlns="http://www.w3.org/2000/svg">
<path fill-rule="evenodd" clip-rule="evenodd" d="M6 2.5C5.44772 2.5 5 2.94772 5 3.5V6.50001H24.9999V7.85995C25 7.85412 25 7.84829 25 7.84246V3.5C25 2.94772 24.5523 2.5 24 2.5H6ZM24.8888 8.50001H5.11118C5.22392 8.82383 5.4193 9.11689 5.68299 9.34762L13.683 16.3476C14.437 17.0074 15.563 17.0074 16.317 16.3476L24.317 9.34762C24.5807 9.11689 24.7761 8.82383 24.8888 8.50001Z" fill="#FEFEFE"/>
<path fill-rule="evenodd" clip-rule="evenodd" d="M17 21.4269L17 12.5H13V23.9269L17 21.4269Z" fill="#FEFEFE"/>
</svg>
