<svg width="1920" height="1080" viewBox="0 0 1920 1080" fill="none" xmlns="http://www.w3.org/2000/svg">
<rect width="1920" height="1080" fill="#FFFAEC"/>
<rect x="40" y="172" width="437" height="106" rx="10" fill="#578E7E"/>
<rect x="40" y="308" width="1840" height="742" rx="10" fill="#F5ECD5"/>
<path d="M60.5703 192.375H57.3516V202H55.4922V192.375H52.2812V190.797H60.5703V192.375ZM63.6722 202.188C62.4378 202.188 61.4508 201.815 60.7112 201.07C59.9769 200.32 59.6097 199.328 59.6097 198.094C59.6097 196.75 59.9925 195.701 60.7581 194.945C61.529 194.19 62.5654 193.812 63.8675 193.812C65.1175 193.812 66.0915 194.18 66.7894 194.914C67.4873 195.648 67.8362 196.667 67.8362 197.969C67.8362 199.245 67.4586 200.268 66.7034 201.039C65.9534 201.805 64.943 202.188 63.6722 202.188ZM63.7581 195.258C63.0498 195.258 62.4899 195.505 62.0784 196C61.667 196.495 61.4612 197.177 61.4612 198.047C61.4612 198.885 61.6696 199.547 62.0862 200.031C62.5029 200.51 63.0602 200.75 63.7581 200.75C64.4717 200.75 65.0185 200.513 65.3987 200.039C65.7842 199.565 65.9769 198.891 65.9769 198.016C65.9769 197.135 65.7842 196.456 65.3987 195.977C65.0185 195.497 64.4717 195.258 63.7581 195.258ZM73.5866 201.914C73.2324 202.091 72.7663 202.18 72.1881 202.18C70.636 202.18 69.86 201.435 69.86 199.945V195.422H68.5241V194H69.86V192.148L71.6725 191.633V194H73.5866V195.422H71.6725V199.422C71.6725 199.896 71.7584 200.234 71.9303 200.438C72.1022 200.641 72.3886 200.742 72.7897 200.742C73.097 200.742 73.3626 200.654 73.5866 200.477V201.914ZM80.9697 202H79.2119V200.75H79.1806C78.6285 201.708 77.8186 202.188 76.7509 202.188C75.9645 202.188 75.3473 201.974 74.8994 201.547C74.4567 201.12 74.2353 200.555 74.2353 199.852C74.2353 198.341 75.1051 197.461 76.8447 197.211L79.2197 196.875C79.2197 195.734 78.678 195.164 77.5947 195.164C76.6416 195.164 75.7822 195.492 75.0166 196.148V194.562C75.8603 194.062 76.8343 193.812 77.9384 193.812C79.9593 193.812 80.9697 194.807 80.9697 196.797V202ZM79.2197 198.07L77.54 198.305C77.0192 198.372 76.6259 198.5 76.3603 198.688C76.0999 198.87 75.9697 199.193 75.9697 199.656C75.9697 199.995 76.0895 200.273 76.3291 200.492C76.5739 200.706 76.8994 200.812 77.3056 200.812C77.8577 200.812 78.3134 200.62 78.6728 200.234C79.0374 199.844 79.2197 199.354 79.2197 198.766V198.07ZM84.6887 202H82.8684V190.156H84.6887V202ZM98.0956 202H96.2831V200.641H96.2519C95.6685 201.672 94.7701 202.188 93.5566 202.188C92.5722 202.188 91.7831 201.831 91.1894 201.117C90.6008 200.398 90.3066 199.422 90.3066 198.188C90.3066 196.865 90.6321 195.805 91.2831 195.008C91.9394 194.211 92.8118 193.812 93.9003 193.812C94.9784 193.812 95.7623 194.245 96.2519 195.109H96.2831V190.156H98.0956V202ZM96.3066 198.344V197.297C96.3066 196.729 96.1217 196.247 95.7519 195.852C95.3821 195.456 94.9107 195.258 94.3378 195.258C93.6607 195.258 93.1269 195.51 92.7363 196.016C92.3508 196.521 92.1581 197.221 92.1581 198.117C92.1581 198.93 92.343 199.573 92.7128 200.047C93.0878 200.516 93.5904 200.75 94.2206 200.75C94.8404 200.75 95.343 200.523 95.7284 200.07C96.1139 199.612 96.3066 199.036 96.3066 198.344ZM106.916 198.492H101.463C101.484 199.232 101.711 199.802 102.143 200.203C102.58 200.604 103.179 200.805 103.94 200.805C104.794 200.805 105.578 200.549 106.291 200.039V201.5C105.562 201.958 104.599 202.188 103.401 202.188C102.224 202.188 101.299 201.826 100.627 201.102C99.9605 200.372 99.6272 199.349 99.6272 198.031C99.6272 196.786 99.9944 195.773 100.729 194.992C101.468 194.206 102.385 193.812 103.479 193.812C104.572 193.812 105.419 194.164 106.018 194.867C106.617 195.57 106.916 196.547 106.916 197.797V198.492ZM105.166 197.211C105.161 196.56 105.007 196.055 104.705 195.695C104.403 195.331 103.987 195.148 103.455 195.148C102.934 195.148 102.492 195.339 102.127 195.719C101.768 196.099 101.546 196.596 101.463 197.211H105.166ZM110.143 202H108.323V190.156H110.143V202ZM118.331 202H116.573V200.75H116.542C115.99 201.708 115.18 202.188 114.112 202.188C113.326 202.188 112.709 201.974 112.261 201.547C111.818 201.12 111.597 200.555 111.597 199.852C111.597 198.341 112.466 197.461 114.206 197.211L116.581 196.875C116.581 195.734 116.039 195.164 114.956 195.164C114.003 195.164 113.143 195.492 112.378 196.148V194.562C113.222 194.062 114.196 193.812 115.3 193.812C117.321 193.812 118.331 194.807 118.331 196.797V202ZM116.581 198.07L114.901 198.305C114.38 198.372 113.987 198.5 113.722 198.688C113.461 198.87 113.331 199.193 113.331 199.656C113.331 199.995 113.451 200.273 113.69 200.492C113.935 200.706 114.261 200.812 114.667 200.812C115.219 200.812 115.675 200.62 116.034 200.234C116.399 199.844 116.581 199.354 116.581 198.766V198.07ZM127.159 194L123.55 203.281C122.8 204.938 121.748 205.766 120.394 205.766C120.014 205.766 119.696 205.732 119.441 205.664V204.156C119.727 204.25 119.988 204.297 120.222 204.297C120.899 204.297 121.404 203.964 121.738 203.297L122.277 201.984L119.097 194H121.105L123.011 199.812C123.032 199.885 123.079 200.078 123.152 200.391H123.191C123.217 200.271 123.264 200.083 123.331 199.828L125.331 194H127.159ZM136.355 201.914C136.001 202.091 135.535 202.18 134.957 202.18C133.405 202.18 132.629 201.435 132.629 199.945V195.422H131.293V194H132.629V192.148L134.441 191.633V194H136.355V195.422H134.441V199.422C134.441 199.896 134.527 200.234 134.699 200.438C134.871 200.641 135.157 200.742 135.558 200.742C135.866 200.742 136.131 200.654 136.355 200.477V201.914ZM138.512 192.32C138.215 192.32 137.96 192.224 137.746 192.031C137.538 191.839 137.434 191.594 137.434 191.297C137.434 191 137.538 190.753 137.746 190.555C137.96 190.357 138.215 190.258 138.512 190.258C138.819 190.258 139.08 190.357 139.293 190.555C139.507 190.753 139.613 191 139.613 191.297C139.613 191.578 139.507 191.82 139.293 192.023C139.08 192.221 138.819 192.32 138.512 192.32ZM139.41 202H137.598V194H139.41V202ZM153.426 202H151.614V197.641C151.614 196.802 151.494 196.195 151.254 195.82C151.02 195.445 150.622 195.258 150.059 195.258C149.585 195.258 149.181 195.495 148.848 195.969C148.52 196.443 148.356 197.01 148.356 197.672V202H146.536V197.492C146.536 196.003 146.01 195.258 144.957 195.258C144.468 195.258 144.064 195.482 143.747 195.93C143.434 196.378 143.278 196.958 143.278 197.672V202H141.465V194H143.278V195.266H143.309C143.887 194.297 144.728 193.812 145.832 193.812C146.385 193.812 146.866 193.966 147.278 194.273C147.694 194.576 147.978 194.974 148.129 195.469C148.723 194.365 149.609 193.812 150.786 193.812C152.546 193.812 153.426 194.898 153.426 197.07V202ZM162.091 198.492H156.637C156.658 199.232 156.885 199.802 157.317 200.203C157.755 200.604 158.354 200.805 159.114 200.805C159.968 200.805 160.752 200.549 161.466 200.039V201.5C160.736 201.958 159.773 202.188 158.575 202.188C157.398 202.188 156.473 201.826 155.802 201.102C155.135 200.372 154.802 199.349 154.802 198.031C154.802 196.786 155.169 195.773 155.903 194.992C156.643 194.206 157.559 193.812 158.653 193.812C159.747 193.812 160.593 194.164 161.192 194.867C161.791 195.57 162.091 196.547 162.091 197.797V198.492ZM160.341 197.211C160.335 196.56 160.182 196.055 159.88 195.695C159.578 195.331 159.161 195.148 158.63 195.148C158.109 195.148 157.666 195.339 157.302 195.719C156.942 196.099 156.721 196.596 156.637 197.211H160.341ZM171.56 204.547H170.029C168.383 202.703 167.56 200.43 167.56 197.727C167.56 195.013 168.383 192.703 170.029 190.797H171.568C169.953 192.776 169.146 195.081 169.146 197.711C169.146 200.32 169.951 202.599 171.56 204.547ZM184.81 202H182.967V194.75C182.967 194.156 183.003 193.43 183.076 192.57H183.045C182.93 193.06 182.829 193.411 182.74 193.625L179.396 202H178.115L174.763 193.688C174.67 193.443 174.571 193.07 174.467 192.57H174.435C174.477 193.018 174.498 193.75 174.498 194.766V202H172.779V190.797H175.396L178.342 198.258C178.566 198.831 178.711 199.258 178.779 199.539H178.818C179.011 198.951 179.167 198.513 179.287 198.227L182.287 190.797H184.81V202ZM187.967 192.32C187.67 192.32 187.415 192.224 187.201 192.031C186.993 191.839 186.889 191.594 186.889 191.297C186.889 191 186.993 190.753 187.201 190.555C187.415 190.357 187.67 190.258 187.967 190.258C188.274 190.258 188.535 190.357 188.748 190.555C188.962 190.753 189.068 191 189.068 191.297C189.068 191.578 188.962 191.82 188.748 192.023C188.535 192.221 188.274 192.32 187.967 192.32ZM188.865 202H187.053V194H188.865V202ZM198.045 202H196.233V197.492C196.233 195.997 195.704 195.25 194.647 195.25C194.095 195.25 193.639 195.458 193.28 195.875C192.92 196.286 192.741 196.807 192.741 197.438V202H190.92V194H192.741V195.328H192.772C193.371 194.318 194.235 193.812 195.366 193.812C196.235 193.812 196.899 194.096 197.358 194.664C197.816 195.227 198.045 196.042 198.045 197.109V202ZM206.921 202H205.108V200.734H205.077C204.551 201.703 203.733 202.188 202.624 202.188C200.733 202.188 199.788 201.052 199.788 198.781V194H201.6V198.594C201.6 200.031 202.155 200.75 203.264 200.75C203.801 200.75 204.241 200.552 204.585 200.156C204.934 199.76 205.108 199.242 205.108 198.602V194H206.921V202ZM213.187 201.914C212.832 202.091 212.366 202.18 211.788 202.18C210.236 202.18 209.46 201.435 209.46 199.945V195.422H208.124V194H209.46V192.148L211.273 191.633V194H213.187V195.422H211.273V199.422C211.273 199.896 211.358 200.234 211.53 200.438C211.702 200.641 211.989 200.742 212.39 200.742C212.697 200.742 212.963 200.654 213.187 200.477V201.914ZM221.109 198.492H215.656C215.676 199.232 215.903 199.802 216.335 200.203C216.773 200.604 217.372 200.805 218.132 200.805C218.986 200.805 219.77 200.549 220.484 200.039V201.5C219.755 201.958 218.791 202.188 217.593 202.188C216.416 202.188 215.492 201.826 214.82 201.102C214.153 200.372 213.82 199.349 213.82 198.031C213.82 196.786 214.187 195.773 214.921 194.992C215.661 194.206 216.577 193.812 217.671 193.812C218.765 193.812 219.611 194.164 220.21 194.867C220.809 195.57 221.109 196.547 221.109 197.797V198.492ZM219.359 197.211C219.354 196.56 219.2 196.055 218.898 195.695C218.596 195.331 218.179 195.148 217.648 195.148C217.127 195.148 216.684 195.339 216.32 195.719C215.96 196.099 215.739 196.596 215.656 197.211H219.359ZM222.015 201.75V200.07C222.692 200.586 223.44 200.844 224.258 200.844C225.351 200.844 225.898 200.521 225.898 199.875C225.898 199.693 225.851 199.539 225.758 199.414C225.664 199.284 225.536 199.169 225.375 199.07C225.218 198.971 225.031 198.883 224.812 198.805C224.599 198.727 224.359 198.638 224.093 198.539C223.765 198.409 223.468 198.271 223.203 198.125C222.942 197.979 222.724 197.815 222.547 197.633C222.375 197.445 222.244 197.234 222.156 197C222.067 196.766 222.023 196.492 222.023 196.18C222.023 195.794 222.114 195.456 222.297 195.164C222.479 194.867 222.724 194.62 223.031 194.422C223.338 194.219 223.687 194.068 224.078 193.969C224.468 193.865 224.872 193.812 225.289 193.812C226.028 193.812 226.69 193.924 227.273 194.148V195.734C226.711 195.349 226.065 195.156 225.336 195.156C225.106 195.156 224.898 195.18 224.711 195.227C224.528 195.273 224.372 195.339 224.242 195.422C224.112 195.505 224.01 195.607 223.937 195.727C223.864 195.841 223.828 195.969 223.828 196.109C223.828 196.281 223.864 196.427 223.937 196.547C224.01 196.667 224.117 196.773 224.258 196.867C224.403 196.956 224.575 197.039 224.773 197.117C224.976 197.19 225.208 197.271 225.468 197.359C225.812 197.5 226.119 197.643 226.39 197.789C226.666 197.935 226.901 198.102 227.093 198.289C227.286 198.471 227.435 198.685 227.539 198.93C227.643 199.169 227.695 199.456 227.695 199.789C227.695 200.195 227.601 200.549 227.414 200.852C227.226 201.154 226.976 201.404 226.664 201.602C226.351 201.799 225.989 201.945 225.578 202.039C225.172 202.138 224.742 202.188 224.289 202.188C223.414 202.188 222.656 202.042 222.015 201.75ZM229.617 204.547H228.086C229.701 202.599 230.508 200.32 230.508 197.711C230.508 195.081 229.698 192.776 228.078 190.797H229.625C231.276 192.703 232.102 195.013 232.102 197.727C232.102 200.43 231.273 202.703 229.617 204.547Z" fill="#FFFAEC"/>
<rect x="507" y="172" width="438" height="106" rx="10" fill="#578E7E"/>
<path d="M530.586 201H528.547L527.539 198.148H523.133L522.164 201H520.133L524.328 189.797H526.422L530.586 201ZM527.047 196.633L525.492 192.164C525.445 192.018 525.396 191.784 525.344 191.461H525.312C525.266 191.758 525.214 191.992 525.156 192.164L523.617 196.633H527.047ZM538.157 193L535.063 201H533.102L530.157 193H532.125L533.899 198.594C534.034 199.005 534.118 199.365 534.149 199.672H534.172C534.219 199.286 534.292 198.938 534.391 198.625L536.25 193H538.157ZM545.719 197.492H540.266C540.287 198.232 540.514 198.802 540.946 199.203C541.383 199.604 541.982 199.805 542.743 199.805C543.597 199.805 544.381 199.549 545.094 199.039V200.5C544.365 200.958 543.402 201.188 542.204 201.188C541.027 201.188 540.102 200.826 539.43 200.102C538.764 199.372 538.43 198.349 538.43 197.031C538.43 195.786 538.798 194.773 539.532 193.992C540.271 193.206 541.188 192.812 542.282 192.812C543.376 192.812 544.222 193.164 544.821 193.867C545.42 194.57 545.719 195.547 545.719 196.797V197.492ZM543.969 196.211C543.964 195.56 543.811 195.055 543.508 194.695C543.206 194.331 542.79 194.148 542.258 194.148C541.738 194.148 541.295 194.339 540.93 194.719C540.571 195.099 540.35 195.596 540.266 196.211H543.969ZM551.767 194.727C551.548 194.555 551.233 194.469 550.821 194.469C550.285 194.469 549.837 194.711 549.478 195.195C549.118 195.68 548.938 196.339 548.938 197.172V201H547.126V193H548.938V194.648H548.97C549.147 194.086 549.418 193.648 549.782 193.336C550.152 193.018 550.563 192.859 551.017 192.859C551.345 192.859 551.595 192.909 551.767 193.008V194.727ZM558.868 201H557.111V199.75H557.079C556.527 200.708 555.717 201.188 554.65 201.188C553.863 201.188 553.246 200.974 552.798 200.547C552.355 200.12 552.134 199.555 552.134 198.852C552.134 197.341 553.004 196.461 554.743 196.211L557.118 195.875C557.118 194.734 556.577 194.164 555.493 194.164C554.54 194.164 553.681 194.492 552.915 195.148V193.562C553.759 193.062 554.733 192.812 555.837 192.812C557.858 192.812 558.868 193.807 558.868 195.797V201ZM557.118 197.07L555.439 197.305C554.918 197.372 554.525 197.5 554.259 197.688C553.999 197.87 553.868 198.193 553.868 198.656C553.868 198.995 553.988 199.273 554.228 199.492C554.473 199.706 554.798 199.812 555.204 199.812C555.756 199.812 556.212 199.62 556.572 199.234C556.936 198.844 557.118 198.354 557.118 197.766V197.07ZM568.048 200.359C568.048 203.297 566.572 204.766 563.619 204.766C562.577 204.766 561.668 204.591 560.892 204.242V202.586C561.767 203.086 562.598 203.336 563.384 203.336C565.285 203.336 566.236 202.401 566.236 200.531V199.656H566.205C565.606 200.677 564.705 201.188 563.502 201.188C562.528 201.188 561.741 200.833 561.142 200.125C560.548 199.411 560.252 198.456 560.252 197.258C560.252 195.898 560.572 194.818 561.213 194.016C561.853 193.214 562.733 192.812 563.853 192.812C564.91 192.812 565.694 193.245 566.205 194.109H566.236V193H568.048V200.359ZM566.252 197.336V196.297C566.252 195.734 566.064 195.255 565.689 194.859C565.319 194.458 564.856 194.258 564.298 194.258C563.611 194.258 563.072 194.513 562.681 195.023C562.296 195.529 562.103 196.237 562.103 197.148C562.103 197.935 562.288 198.565 562.658 199.039C563.033 199.508 563.528 199.742 564.142 199.742C564.767 199.742 565.275 199.518 565.666 199.07C566.056 198.617 566.252 198.039 566.252 197.336ZM576.861 197.492H571.408C571.429 198.232 571.656 198.802 572.088 199.203C572.525 199.604 573.124 199.805 573.885 199.805C574.739 199.805 575.523 199.549 576.236 199.039V200.5C575.507 200.958 574.544 201.188 573.346 201.188C572.169 201.188 571.244 200.826 570.572 200.102C569.906 199.372 569.572 198.349 569.572 197.031C569.572 195.786 569.939 194.773 570.674 193.992C571.413 193.206 572.33 192.812 573.424 192.812C574.518 192.812 575.364 193.164 575.963 193.867C576.562 194.57 576.861 195.547 576.861 196.797V197.492ZM575.111 196.211C575.106 195.56 574.952 195.055 574.65 194.695C574.348 194.331 573.932 194.148 573.4 194.148C572.879 194.148 572.437 194.339 572.072 194.719C571.713 195.099 571.491 195.596 571.408 196.211H575.111ZM589.627 201H587.815V199.641H587.784C587.2 200.672 586.302 201.188 585.088 201.188C584.104 201.188 583.315 200.831 582.721 200.117C582.133 199.398 581.838 198.422 581.838 197.188C581.838 195.865 582.164 194.805 582.815 194.008C583.471 193.211 584.344 192.812 585.432 192.812C586.51 192.812 587.294 193.245 587.784 194.109H587.815V189.156H589.627V201ZM587.838 197.344V196.297C587.838 195.729 587.654 195.247 587.284 194.852C586.914 194.456 586.443 194.258 585.87 194.258C585.193 194.258 584.659 194.51 584.268 195.016C583.883 195.521 583.69 196.221 583.69 197.117C583.69 197.93 583.875 198.573 584.245 199.047C584.62 199.516 585.122 199.75 585.752 199.75C586.372 199.75 586.875 199.523 587.26 199.07C587.646 198.612 587.838 198.036 587.838 197.344ZM598.448 197.492H592.995C593.016 198.232 593.242 198.802 593.675 199.203C594.112 199.604 594.711 199.805 595.472 199.805C596.326 199.805 597.11 199.549 597.823 199.039V200.5C597.094 200.958 596.13 201.188 594.933 201.188C593.755 201.188 592.831 200.826 592.159 200.102C591.492 199.372 591.159 198.349 591.159 197.031C591.159 195.786 591.526 194.773 592.261 193.992C593 193.206 593.917 192.812 595.011 192.812C596.104 192.812 596.951 193.164 597.55 193.867C598.149 194.57 598.448 195.547 598.448 196.797V197.492ZM596.698 196.211C596.693 195.56 596.539 195.055 596.237 194.695C595.935 194.331 595.518 194.148 594.987 194.148C594.466 194.148 594.024 194.339 593.659 194.719C593.3 195.099 593.078 195.596 592.995 196.211H596.698ZM601.675 201H599.855V189.156H601.675V201ZM609.863 201H608.105V199.75H608.074C607.522 200.708 606.712 201.188 605.644 201.188C604.858 201.188 604.24 200.974 603.793 200.547C603.35 200.12 603.128 199.555 603.128 198.852C603.128 197.341 603.998 196.461 605.738 196.211L608.113 195.875C608.113 194.734 607.571 194.164 606.488 194.164C605.535 194.164 604.675 194.492 603.91 195.148V193.562C604.753 193.062 605.727 192.812 606.832 192.812C608.852 192.812 609.863 193.807 609.863 195.797V201ZM608.113 197.07L606.433 197.305C605.912 197.372 605.519 197.5 605.253 197.688C604.993 197.87 604.863 198.193 604.863 198.656C604.863 198.995 604.983 199.273 605.222 199.492C605.467 199.706 605.793 199.812 606.199 199.812C606.751 199.812 607.207 199.62 607.566 199.234C607.931 198.844 608.113 198.354 608.113 197.766V197.07ZM618.691 193L615.082 202.281C614.332 203.938 613.28 204.766 611.926 204.766C611.545 204.766 611.228 204.732 610.973 204.664V203.156C611.259 203.25 611.519 203.297 611.754 203.297C612.431 203.297 612.936 202.964 613.269 202.297L613.808 200.984L610.629 193H612.637L614.543 198.812C614.564 198.885 614.611 199.078 614.683 199.391H614.723C614.749 199.271 614.795 199.083 614.863 198.828L616.863 193H618.691ZM625.512 199.82H625.481V204.68H623.668V193H625.481V194.406H625.512C626.132 193.344 627.038 192.812 628.231 192.812C629.247 192.812 630.038 193.169 630.606 193.883C631.174 194.596 631.457 195.555 631.457 196.758C631.457 198.091 631.137 199.159 630.497 199.961C629.856 200.763 628.981 201.164 627.872 201.164C626.851 201.164 626.064 200.716 625.512 199.82ZM625.465 196.664V197.656C625.465 198.24 625.65 198.734 626.02 199.141C626.395 199.547 626.869 199.75 627.442 199.75C628.114 199.75 628.64 199.49 629.02 198.969C629.405 198.443 629.598 197.711 629.598 196.773C629.598 195.987 629.418 195.372 629.059 194.93C628.705 194.482 628.223 194.258 627.614 194.258C626.968 194.258 626.447 194.487 626.051 194.945C625.661 195.404 625.465 195.977 625.465 196.664ZM639.762 197.492H634.309C634.33 198.232 634.557 198.802 634.989 199.203C635.427 199.604 636.026 199.805 636.786 199.805C637.64 199.805 638.424 199.549 639.137 199.039V200.5C638.408 200.958 637.445 201.188 636.247 201.188C635.07 201.188 634.145 200.826 633.473 200.102C632.807 199.372 632.473 198.349 632.473 197.031C632.473 195.786 632.841 194.773 633.575 193.992C634.315 193.206 635.231 192.812 636.325 192.812C637.419 192.812 638.265 193.164 638.864 193.867C639.463 194.57 639.762 195.547 639.762 196.797V197.492ZM638.012 196.211C638.007 195.56 637.854 195.055 637.552 194.695C637.249 194.331 636.833 194.148 636.302 194.148C635.781 194.148 635.338 194.339 634.973 194.719C634.614 195.099 634.393 195.596 634.309 196.211H638.012ZM645.81 194.727C645.591 194.555 645.276 194.469 644.864 194.469C644.328 194.469 643.88 194.711 643.521 195.195C643.161 195.68 642.982 196.339 642.982 197.172V201H641.169V193H642.982V194.648H643.013C643.19 194.086 643.461 193.648 643.825 193.336C644.195 193.018 644.607 192.859 645.06 192.859C645.388 192.859 645.638 192.909 645.81 193.008V194.727ZM659.717 201H657.545L655.756 198C655.594 197.724 655.435 197.49 655.279 197.297C655.128 197.099 654.972 196.938 654.81 196.812C654.654 196.688 654.482 196.596 654.295 196.539C654.107 196.482 653.896 196.453 653.662 196.453H652.912V201H651.06V189.797H654.748C655.274 189.797 655.758 189.859 656.201 189.984C656.644 190.109 657.029 190.299 657.357 190.555C657.685 190.805 657.941 191.12 658.123 191.5C658.31 191.875 658.404 192.315 658.404 192.82C658.404 193.216 658.344 193.581 658.224 193.914C658.11 194.242 657.943 194.536 657.724 194.797C657.511 195.052 657.25 195.271 656.943 195.453C656.641 195.635 656.3 195.776 655.92 195.875V195.906C656.123 196.021 656.3 196.148 656.451 196.289C656.602 196.424 656.745 196.565 656.881 196.711C657.016 196.857 657.149 197.023 657.279 197.211C657.414 197.393 657.563 197.607 657.724 197.852L659.717 201ZM652.912 191.305V194.945H654.459C654.745 194.945 655.008 194.901 655.248 194.812C655.493 194.724 655.704 194.596 655.881 194.43C656.058 194.263 656.196 194.06 656.295 193.82C656.394 193.581 656.443 193.312 656.443 193.016C656.443 192.479 656.274 192.06 655.935 191.758C655.597 191.456 655.11 191.305 654.474 191.305H652.912ZM666.857 197.492H661.404C661.425 198.232 661.652 198.802 662.084 199.203C662.522 199.604 663.121 199.805 663.881 199.805C664.735 199.805 665.519 199.549 666.232 199.039V200.5C665.503 200.958 664.54 201.188 663.342 201.188C662.165 201.188 661.24 200.826 660.568 200.102C659.902 199.372 659.568 198.349 659.568 197.031C659.568 195.786 659.936 194.773 660.67 193.992C661.41 193.206 662.326 192.812 663.42 192.812C664.514 192.812 665.36 193.164 665.959 193.867C666.558 194.57 666.857 195.547 666.857 196.797V197.492ZM665.107 196.211C665.102 195.56 664.949 195.055 664.647 194.695C664.344 194.331 663.928 194.148 663.397 194.148C662.876 194.148 662.433 194.339 662.068 194.719C661.709 195.099 661.488 195.596 661.404 196.211H665.107ZM674.405 201H672.647V199.75H672.616C672.064 200.708 671.254 201.188 670.186 201.188C669.399 201.188 668.782 200.974 668.334 200.547C667.892 200.12 667.67 199.555 667.67 198.852C667.67 197.341 668.54 196.461 670.28 196.211L672.655 195.875C672.655 194.734 672.113 194.164 671.03 194.164C670.077 194.164 669.217 194.492 668.452 195.148V193.562C669.295 193.062 670.269 192.812 671.373 192.812C673.394 192.812 674.405 193.807 674.405 195.797V201ZM672.655 197.07L670.975 197.305C670.454 197.372 670.061 197.5 669.795 197.688C669.535 197.87 669.405 198.193 669.405 198.656C669.405 198.995 669.524 199.273 669.764 199.492C670.009 199.706 670.334 199.812 670.741 199.812C671.293 199.812 671.748 199.62 672.108 199.234C672.472 198.844 672.655 198.354 672.655 197.766V197.07ZM675.803 200.75V199.07C676.481 199.586 677.228 199.844 678.046 199.844C679.139 199.844 679.686 199.521 679.686 198.875C679.686 198.693 679.639 198.539 679.546 198.414C679.452 198.284 679.324 198.169 679.163 198.07C679.007 197.971 678.819 197.883 678.6 197.805C678.387 197.727 678.147 197.638 677.882 197.539C677.553 197.409 677.257 197.271 676.991 197.125C676.731 196.979 676.512 196.815 676.335 196.633C676.163 196.445 676.033 196.234 675.944 196C675.856 195.766 675.811 195.492 675.811 195.18C675.811 194.794 675.902 194.456 676.085 194.164C676.267 193.867 676.512 193.62 676.819 193.422C677.126 193.219 677.475 193.068 677.866 192.969C678.257 192.865 678.66 192.812 679.077 192.812C679.816 192.812 680.478 192.924 681.061 193.148V194.734C680.499 194.349 679.853 194.156 679.124 194.156C678.895 194.156 678.686 194.18 678.499 194.227C678.316 194.273 678.16 194.339 678.03 194.422C677.9 194.505 677.798 194.607 677.725 194.727C677.652 194.841 677.616 194.969 677.616 195.109C677.616 195.281 677.652 195.427 677.725 195.547C677.798 195.667 677.905 195.773 678.046 195.867C678.191 195.956 678.363 196.039 678.561 196.117C678.764 196.19 678.996 196.271 679.257 196.359C679.6 196.5 679.908 196.643 680.178 196.789C680.454 196.935 680.689 197.102 680.882 197.289C681.074 197.471 681.223 197.685 681.327 197.93C681.431 198.169 681.483 198.456 681.483 198.789C681.483 199.195 681.389 199.549 681.202 199.852C681.014 200.154 680.764 200.404 680.452 200.602C680.139 200.799 679.777 200.945 679.366 201.039C678.96 201.138 678.53 201.188 678.077 201.188C677.202 201.188 676.444 201.042 675.803 200.75ZM686.437 201.188C685.202 201.188 684.215 200.815 683.476 200.07C682.741 199.32 682.374 198.328 682.374 197.094C682.374 195.75 682.757 194.701 683.523 193.945C684.293 193.19 685.33 192.812 686.632 192.812C687.882 192.812 688.856 193.18 689.554 193.914C690.252 194.648 690.601 195.667 690.601 196.969C690.601 198.245 690.223 199.268 689.468 200.039C688.718 200.805 687.707 201.188 686.437 201.188ZM686.523 194.258C685.814 194.258 685.254 194.505 684.843 195C684.431 195.495 684.226 196.177 684.226 197.047C684.226 197.885 684.434 198.547 684.851 199.031C685.267 199.51 685.825 199.75 686.523 199.75C687.236 199.75 687.783 199.513 688.163 199.039C688.549 198.565 688.741 197.891 688.741 197.016C688.741 196.135 688.549 195.456 688.163 194.977C687.783 194.497 687.236 194.258 686.523 194.258ZM699.257 201H697.445V196.492C697.445 194.997 696.916 194.25 695.859 194.25C695.307 194.25 694.851 194.458 694.492 194.875C694.132 195.286 693.952 195.807 693.952 196.438V201H692.132V193H693.952V194.328H693.984C694.583 193.318 695.447 192.812 696.577 192.812C697.447 192.812 698.111 193.096 698.57 193.664C699.028 194.227 699.257 195.042 699.257 196.109V201Z" fill="#FFFAEC"/>
<rect x="975" y="172" width="437" height="106" rx="10" fill="#578E7E"/>
<path d="M999.586 201H997.547L996.539 198.148H992.133L991.164 201H989.133L993.328 189.797H995.422L999.586 201ZM996.047 196.633L994.492 192.164C994.445 192.018 994.396 191.784 994.344 191.461H994.312C994.266 191.758 994.214 191.992 994.156 192.164L992.617 196.633H996.047ZM1007.16 193L1004.06 201H1002.1L999.157 193H1001.13L1002.9 198.594C1003.03 199.005 1003.12 199.365 1003.15 199.672H1003.17C1003.22 199.286 1003.29 198.938 1003.39 198.625L1005.25 193H1007.16ZM1014.72 197.492H1009.27C1009.29 198.232 1009.51 198.802 1009.95 199.203C1010.38 199.604 1010.98 199.805 1011.74 199.805C1012.6 199.805 1013.38 199.549 1014.09 199.039V200.5C1013.37 200.958 1012.4 201.188 1011.2 201.188C1010.03 201.188 1009.1 200.826 1008.43 200.102C1007.76 199.372 1007.43 198.349 1007.43 197.031C1007.43 195.786 1007.8 194.773 1008.53 193.992C1009.27 193.206 1010.19 192.812 1011.28 192.812C1012.38 192.812 1013.22 193.164 1013.82 193.867C1014.42 194.57 1014.72 195.547 1014.72 196.797V197.492ZM1012.97 196.211C1012.96 195.56 1012.81 195.055 1012.51 194.695C1012.21 194.331 1011.79 194.148 1011.26 194.148C1010.74 194.148 1010.29 194.339 1009.93 194.719C1009.57 195.099 1009.35 195.596 1009.27 196.211H1012.97ZM1020.77 194.727C1020.55 194.555 1020.23 194.469 1019.82 194.469C1019.28 194.469 1018.84 194.711 1018.48 195.195C1018.12 195.68 1017.94 196.339 1017.94 197.172V201H1016.13V193H1017.94V194.648H1017.97C1018.15 194.086 1018.42 193.648 1018.78 193.336C1019.15 193.018 1019.56 192.859 1020.02 192.859C1020.34 192.859 1020.59 192.909 1020.77 193.008V194.727ZM1027.87 201H1026.11V199.75H1026.08C1025.53 200.708 1024.72 201.188 1023.65 201.188C1022.86 201.188 1022.25 200.974 1021.8 200.547C1021.36 200.12 1021.13 199.555 1021.13 198.852C1021.13 197.341 1022 196.461 1023.74 196.211L1026.12 195.875C1026.12 194.734 1025.58 194.164 1024.49 194.164C1023.54 194.164 1022.68 194.492 1021.92 195.148V193.562C1022.76 193.062 1023.73 192.812 1024.84 192.812C1026.86 192.812 1027.87 193.807 1027.87 195.797V201ZM1026.12 197.07L1024.44 197.305C1023.92 197.372 1023.52 197.5 1023.26 197.688C1023 197.87 1022.87 198.193 1022.87 198.656C1022.87 198.995 1022.99 199.273 1023.23 199.492C1023.47 199.706 1023.8 199.812 1024.2 199.812C1024.76 199.812 1025.21 199.62 1025.57 199.234C1025.94 198.844 1026.12 198.354 1026.12 197.766V197.07ZM1037.05 200.359C1037.05 203.297 1035.57 204.766 1032.62 204.766C1031.58 204.766 1030.67 204.591 1029.89 204.242V202.586C1030.77 203.086 1031.6 203.336 1032.38 203.336C1034.29 203.336 1035.24 202.401 1035.24 200.531V199.656H1035.2C1034.61 200.677 1033.7 201.188 1032.5 201.188C1031.53 201.188 1030.74 200.833 1030.14 200.125C1029.55 199.411 1029.25 198.456 1029.25 197.258C1029.25 195.898 1029.57 194.818 1030.21 194.016C1030.85 193.214 1031.73 192.812 1032.85 192.812C1033.91 192.812 1034.69 193.245 1035.2 194.109H1035.24V193H1037.05V200.359ZM1035.25 197.336V196.297C1035.25 195.734 1035.06 195.255 1034.69 194.859C1034.32 194.458 1033.86 194.258 1033.3 194.258C1032.61 194.258 1032.07 194.513 1031.68 195.023C1031.3 195.529 1031.1 196.237 1031.1 197.148C1031.1 197.935 1031.29 198.565 1031.66 199.039C1032.03 199.508 1032.53 199.742 1033.14 199.742C1033.77 199.742 1034.28 199.518 1034.67 199.07C1035.06 198.617 1035.25 198.039 1035.25 197.336ZM1045.86 197.492H1040.41C1040.43 198.232 1040.66 198.802 1041.09 199.203C1041.53 199.604 1042.12 199.805 1042.88 199.805C1043.74 199.805 1044.52 199.549 1045.24 199.039V200.5C1044.51 200.958 1043.54 201.188 1042.35 201.188C1041.17 201.188 1040.24 200.826 1039.57 200.102C1038.91 199.372 1038.57 198.349 1038.57 197.031C1038.57 195.786 1038.94 194.773 1039.67 193.992C1040.41 193.206 1041.33 192.812 1042.42 192.812C1043.52 192.812 1044.36 193.164 1044.96 193.867C1045.56 194.57 1045.86 195.547 1045.86 196.797V197.492ZM1044.11 196.211C1044.11 195.56 1043.95 195.055 1043.65 194.695C1043.35 194.331 1042.93 194.148 1042.4 194.148C1041.88 194.148 1041.44 194.339 1041.07 194.719C1040.71 195.099 1040.49 195.596 1040.41 196.211H1044.11ZM1058.63 201H1056.81V199.641H1056.78C1056.2 200.672 1055.3 201.188 1054.09 201.188C1053.1 201.188 1052.31 200.831 1051.72 200.117C1051.13 199.398 1050.84 198.422 1050.84 197.188C1050.84 195.865 1051.16 194.805 1051.81 194.008C1052.47 193.211 1053.34 192.812 1054.43 192.812C1055.51 192.812 1056.29 193.245 1056.78 194.109H1056.81V189.156H1058.63V201ZM1056.84 197.344V196.297C1056.84 195.729 1056.65 195.247 1056.28 194.852C1055.91 194.456 1055.44 194.258 1054.87 194.258C1054.19 194.258 1053.66 194.51 1053.27 195.016C1052.88 195.521 1052.69 196.221 1052.69 197.117C1052.69 197.93 1052.87 198.573 1053.24 199.047C1053.62 199.516 1054.12 199.75 1054.75 199.75C1055.37 199.75 1055.87 199.523 1056.26 199.07C1056.65 198.612 1056.84 198.036 1056.84 197.344ZM1067.45 197.492H1062C1062.02 198.232 1062.24 198.802 1062.67 199.203C1063.11 199.604 1063.71 199.805 1064.47 199.805C1065.33 199.805 1066.11 199.549 1066.82 199.039V200.5C1066.09 200.958 1065.13 201.188 1063.93 201.188C1062.76 201.188 1061.83 200.826 1061.16 200.102C1060.49 199.372 1060.16 198.349 1060.16 197.031C1060.16 195.786 1060.53 194.773 1061.26 193.992C1062 193.206 1062.92 192.812 1064.01 192.812C1065.1 192.812 1065.95 193.164 1066.55 193.867C1067.15 194.57 1067.45 195.547 1067.45 196.797V197.492ZM1065.7 196.211C1065.69 195.56 1065.54 195.055 1065.24 194.695C1064.94 194.331 1064.52 194.148 1063.99 194.148C1063.47 194.148 1063.02 194.339 1062.66 194.719C1062.3 195.099 1062.08 195.596 1062 196.211H1065.7ZM1070.68 201H1068.85V189.156H1070.68V201ZM1078.86 201H1077.11V199.75H1077.07C1076.52 200.708 1075.71 201.188 1074.64 201.188C1073.86 201.188 1073.24 200.974 1072.79 200.547C1072.35 200.12 1072.13 199.555 1072.13 198.852C1072.13 197.341 1073 196.461 1074.74 196.211L1077.11 195.875C1077.11 194.734 1076.57 194.164 1075.49 194.164C1074.53 194.164 1073.68 194.492 1072.91 195.148V193.562C1073.75 193.062 1074.73 192.812 1075.83 192.812C1077.85 192.812 1078.86 193.807 1078.86 195.797V201ZM1077.11 197.07L1075.43 197.305C1074.91 197.372 1074.52 197.5 1074.25 197.688C1073.99 197.87 1073.86 198.193 1073.86 198.656C1073.86 198.995 1073.98 199.273 1074.22 199.492C1074.47 199.706 1074.79 199.812 1075.2 199.812C1075.75 199.812 1076.21 199.62 1076.57 199.234C1076.93 198.844 1077.11 198.354 1077.11 197.766V197.07ZM1087.69 193L1084.08 202.281C1083.33 203.938 1082.28 204.766 1080.93 204.766C1080.55 204.766 1080.23 204.732 1079.97 204.664V203.156C1080.26 203.25 1080.52 203.297 1080.75 203.297C1081.43 203.297 1081.94 202.964 1082.27 202.297L1082.81 200.984L1079.63 193H1081.64L1083.54 198.812C1083.56 198.885 1083.61 199.078 1083.68 199.391H1083.72C1083.75 199.271 1083.8 199.083 1083.86 198.828L1085.86 193H1087.69ZM1094.51 199.82H1094.48V204.68H1092.67V193H1094.48V194.406H1094.51C1095.13 193.344 1096.04 192.812 1097.23 192.812C1098.25 192.812 1099.04 193.169 1099.61 193.883C1100.17 194.596 1100.46 195.555 1100.46 196.758C1100.46 198.091 1100.14 199.159 1099.5 199.961C1098.86 200.763 1097.98 201.164 1096.87 201.164C1095.85 201.164 1095.06 200.716 1094.51 199.82ZM1094.47 196.664V197.656C1094.47 198.24 1094.65 198.734 1095.02 199.141C1095.39 199.547 1095.87 199.75 1096.44 199.75C1097.11 199.75 1097.64 199.49 1098.02 198.969C1098.41 198.443 1098.6 197.711 1098.6 196.773C1098.6 195.987 1098.42 195.372 1098.06 194.93C1097.7 194.482 1097.22 194.258 1096.61 194.258C1095.97 194.258 1095.45 194.487 1095.05 194.945C1094.66 195.404 1094.47 195.977 1094.47 196.664ZM1108.76 197.492H1103.31C1103.33 198.232 1103.56 198.802 1103.99 199.203C1104.43 199.604 1105.03 199.805 1105.79 199.805C1106.64 199.805 1107.42 199.549 1108.14 199.039V200.5C1107.41 200.958 1106.44 201.188 1105.25 201.188C1104.07 201.188 1103.15 200.826 1102.47 200.102C1101.81 199.372 1101.47 198.349 1101.47 197.031C1101.47 195.786 1101.84 194.773 1102.57 193.992C1103.31 193.206 1104.23 192.812 1105.32 192.812C1106.42 192.812 1107.27 193.164 1107.86 193.867C1108.46 194.57 1108.76 195.547 1108.76 196.797V197.492ZM1107.01 196.211C1107.01 195.56 1106.85 195.055 1106.55 194.695C1106.25 194.331 1105.83 194.148 1105.3 194.148C1104.78 194.148 1104.34 194.339 1103.97 194.719C1103.61 195.099 1103.39 195.596 1103.31 196.211H1107.01ZM1114.81 194.727C1114.59 194.555 1114.28 194.469 1113.86 194.469C1113.33 194.469 1112.88 194.711 1112.52 195.195C1112.16 195.68 1111.98 196.339 1111.98 197.172V201H1110.17V193H1111.98V194.648H1112.01C1112.19 194.086 1112.46 193.648 1112.83 193.336C1113.2 193.018 1113.61 192.859 1114.06 192.859C1114.39 192.859 1114.64 192.909 1114.81 193.008V194.727ZM1124.38 190.633C1124.14 190.492 1123.86 190.422 1123.54 190.422C1122.66 190.422 1122.22 190.919 1122.22 191.914V193H1124.08V194.422H1122.23V201H1120.42V194.422H1119.05V193H1120.42V191.703C1120.42 190.859 1120.7 190.195 1121.25 189.711C1121.8 189.221 1122.49 188.977 1123.32 188.977C1123.77 188.977 1124.12 189.026 1124.38 189.125V190.633ZM1126.87 201H1125.05V189.156H1126.87V201ZM1129.83 191.32C1129.54 191.32 1129.28 191.224 1129.07 191.031C1128.86 190.839 1128.76 190.594 1128.76 190.297C1128.76 190 1128.86 189.753 1129.07 189.555C1129.28 189.357 1129.54 189.258 1129.83 189.258C1130.14 189.258 1130.4 189.357 1130.62 189.555C1130.83 189.753 1130.94 190 1130.94 190.297C1130.94 190.578 1130.83 190.82 1130.62 191.023C1130.4 191.221 1130.14 191.32 1129.83 191.32ZM1130.73 201H1128.92V193H1130.73V201ZM1140.07 200.359C1140.07 203.297 1138.59 204.766 1135.64 204.766C1134.6 204.766 1133.69 204.591 1132.91 204.242V202.586C1133.79 203.086 1134.62 203.336 1135.4 203.336C1137.31 203.336 1138.26 202.401 1138.26 200.531V199.656H1138.23C1137.63 200.677 1136.73 201.188 1135.52 201.188C1134.55 201.188 1133.76 200.833 1133.16 200.125C1132.57 199.411 1132.27 198.456 1132.27 197.258C1132.27 195.898 1132.59 194.818 1133.23 194.016C1133.87 193.214 1134.75 192.812 1135.87 192.812C1136.93 192.812 1137.71 193.245 1138.23 194.109H1138.26V193H1140.07V200.359ZM1138.27 197.336V196.297C1138.27 195.734 1138.08 195.255 1137.71 194.859C1137.34 194.458 1136.88 194.258 1136.32 194.258C1135.63 194.258 1135.09 194.513 1134.7 195.023C1134.32 195.529 1134.12 196.237 1134.12 197.148C1134.12 197.935 1134.31 198.565 1134.68 199.039C1135.05 199.508 1135.55 199.742 1136.16 199.742C1136.79 199.742 1137.3 199.518 1137.69 199.07C1138.08 198.617 1138.27 198.039 1138.27 197.336ZM1149.22 201H1147.41V196.625C1147.41 195.042 1146.88 194.25 1145.82 194.25C1145.29 194.25 1144.84 194.479 1144.48 194.938C1144.11 195.396 1143.93 195.982 1143.93 196.695V201H1142.11V189.156H1143.93V194.328H1143.96C1144.56 193.318 1145.43 192.812 1146.55 192.812C1148.33 192.812 1149.22 193.898 1149.22 196.07V201ZM1155.32 200.914C1154.97 201.091 1154.5 201.18 1153.92 201.18C1152.37 201.18 1151.59 200.435 1151.59 198.945V194.422H1150.26V193H1151.59V191.148L1153.41 190.633V193H1155.32V194.422H1153.41V198.422C1153.41 198.896 1153.49 199.234 1153.66 199.438C1153.84 199.641 1154.12 199.742 1154.52 199.742C1154.83 199.742 1155.1 199.654 1155.32 199.477V200.914ZM1156.06 200.75V199.07C1156.74 199.586 1157.49 199.844 1158.3 199.844C1159.4 199.844 1159.95 199.521 1159.95 198.875C1159.95 198.693 1159.9 198.539 1159.8 198.414C1159.71 198.284 1159.58 198.169 1159.42 198.07C1159.27 197.971 1159.08 197.883 1158.86 197.805C1158.65 197.727 1158.41 197.638 1158.14 197.539C1157.81 197.409 1157.52 197.271 1157.25 197.125C1156.99 196.979 1156.77 196.815 1156.59 196.633C1156.42 196.445 1156.29 196.234 1156.2 196C1156.11 195.766 1156.07 195.492 1156.07 195.18C1156.07 194.794 1156.16 194.456 1156.34 194.164C1156.53 193.867 1156.77 193.62 1157.08 193.422C1157.39 193.219 1157.73 193.068 1158.12 192.969C1158.52 192.865 1158.92 192.812 1159.34 192.812C1160.08 192.812 1160.74 192.924 1161.32 193.148V194.734C1160.76 194.349 1160.11 194.156 1159.38 194.156C1159.15 194.156 1158.95 194.18 1158.76 194.227C1158.58 194.273 1158.42 194.339 1158.29 194.422C1158.16 194.505 1158.06 194.607 1157.98 194.727C1157.91 194.841 1157.87 194.969 1157.87 195.109C1157.87 195.281 1157.91 195.427 1157.98 195.547C1158.06 195.667 1158.16 195.773 1158.3 195.867C1158.45 195.956 1158.62 196.039 1158.82 196.117C1159.02 196.19 1159.25 196.271 1159.52 196.359C1159.86 196.5 1160.17 196.643 1160.44 196.789C1160.71 196.935 1160.95 197.102 1161.14 197.289C1161.33 197.471 1161.48 197.685 1161.59 197.93C1161.69 198.169 1161.74 198.456 1161.74 198.789C1161.74 199.195 1161.65 199.549 1161.46 199.852C1161.27 200.154 1161.02 200.404 1160.71 200.602C1160.4 200.799 1160.04 200.945 1159.62 201.039C1159.22 201.138 1158.79 201.188 1158.34 201.188C1157.46 201.188 1156.7 201.042 1156.06 200.75Z" fill="#FFFAEC"/>
<rect x="1443" y="172" width="437" height="106" rx="10" fill="#578E7E"/>
<path d="M1470.41 201H1468.57V193.75C1468.57 193.156 1468.61 192.43 1468.68 191.57H1468.65C1468.53 192.06 1468.43 192.411 1468.34 192.625L1465 201H1463.72L1460.37 192.688C1460.27 192.443 1460.17 192.07 1460.07 191.57H1460.04C1460.08 192.018 1460.1 192.75 1460.1 193.766V201H1458.38V189.797H1461L1463.95 197.258C1464.17 197.831 1464.32 198.258 1464.38 198.539H1464.42C1464.61 197.951 1464.77 197.513 1464.89 197.227L1467.89 189.797H1470.41V201ZM1476.2 201.188C1474.97 201.188 1473.98 200.815 1473.24 200.07C1472.51 199.32 1472.14 198.328 1472.14 197.094C1472.14 195.75 1472.52 194.701 1473.29 193.945C1474.06 193.19 1475.1 192.812 1476.4 192.812C1477.65 192.812 1478.62 193.18 1479.32 193.914C1480.02 194.648 1480.37 195.667 1480.37 196.969C1480.37 198.245 1479.99 199.268 1479.23 200.039C1478.48 200.805 1477.47 201.188 1476.2 201.188ZM1476.29 194.258C1475.58 194.258 1475.02 194.505 1474.61 195C1474.2 195.495 1473.99 196.177 1473.99 197.047C1473.99 197.885 1474.2 198.547 1474.62 199.031C1475.03 199.51 1475.59 199.75 1476.29 199.75C1477 199.75 1477.55 199.513 1477.93 199.039C1478.32 198.565 1478.51 197.891 1478.51 197.016C1478.51 196.135 1478.32 195.456 1477.93 194.977C1477.55 194.497 1477 194.258 1476.29 194.258ZM1481.4 200.75V199.07C1482.08 199.586 1482.82 199.844 1483.64 199.844C1484.74 199.844 1485.28 199.521 1485.28 198.875C1485.28 198.693 1485.24 198.539 1485.14 198.414C1485.05 198.284 1484.92 198.169 1484.76 198.07C1484.6 197.971 1484.41 197.883 1484.2 197.805C1483.98 197.727 1483.74 197.638 1483.48 197.539C1483.15 197.409 1482.85 197.271 1482.59 197.125C1482.33 196.979 1482.11 196.815 1481.93 196.633C1481.76 196.445 1481.63 196.234 1481.54 196C1481.45 195.766 1481.41 195.492 1481.41 195.18C1481.41 194.794 1481.5 194.456 1481.68 194.164C1481.86 193.867 1482.11 193.62 1482.41 193.422C1482.72 193.219 1483.07 193.068 1483.46 192.969C1483.85 192.865 1484.26 192.812 1484.67 192.812C1485.41 192.812 1486.07 192.924 1486.66 193.148V194.734C1486.09 194.349 1485.45 194.156 1484.72 194.156C1484.49 194.156 1484.28 194.18 1484.09 194.227C1483.91 194.273 1483.76 194.339 1483.63 194.422C1483.5 194.505 1483.39 194.607 1483.32 194.727C1483.25 194.841 1483.21 194.969 1483.21 195.109C1483.21 195.281 1483.25 195.427 1483.32 195.547C1483.39 195.667 1483.5 195.773 1483.64 195.867C1483.79 195.956 1483.96 196.039 1484.16 196.117C1484.36 196.19 1484.59 196.271 1484.85 196.359C1485.2 196.5 1485.5 196.643 1485.77 196.789C1486.05 196.935 1486.28 197.102 1486.48 197.289C1486.67 197.471 1486.82 197.685 1486.92 197.93C1487.03 198.169 1487.08 198.456 1487.08 198.789C1487.08 199.195 1486.99 199.549 1486.8 199.852C1486.61 200.154 1486.36 200.404 1486.05 200.602C1485.74 200.799 1485.37 200.945 1484.96 201.039C1484.56 201.138 1484.13 201.188 1483.67 201.188C1482.8 201.188 1482.04 201.042 1481.4 200.75ZM1492.7 200.914C1492.35 201.091 1491.88 201.18 1491.31 201.18C1489.75 201.18 1488.98 200.435 1488.98 198.945V194.422H1487.64V193H1488.98V191.148L1490.79 190.633V193H1492.7V194.422H1490.79V198.422C1490.79 198.896 1490.88 199.234 1491.05 199.438C1491.22 199.641 1491.51 199.742 1491.91 199.742C1492.21 199.742 1492.48 199.654 1492.7 199.477V200.914ZM1505.31 201H1503.49V199.641H1503.46C1502.88 200.672 1501.98 201.188 1500.77 201.188C1499.78 201.188 1498.99 200.831 1498.4 200.117C1497.81 199.398 1497.52 198.422 1497.52 197.188C1497.52 195.865 1497.84 194.805 1498.49 194.008C1499.15 193.211 1500.02 192.812 1501.11 192.812C1502.19 192.812 1502.97 193.245 1503.46 194.109H1503.49V189.156H1505.31V201ZM1503.52 197.344V196.297C1503.52 195.729 1503.33 195.247 1502.96 194.852C1502.59 194.456 1502.12 194.258 1501.55 194.258C1500.87 194.258 1500.34 194.51 1499.95 195.016C1499.56 195.521 1499.37 196.221 1499.37 197.117C1499.37 197.93 1499.55 198.573 1499.92 199.047C1500.3 199.516 1500.8 199.75 1501.43 199.75C1502.05 199.75 1502.55 199.523 1502.94 199.07C1503.32 198.612 1503.52 198.036 1503.52 197.344ZM1514.13 197.492H1508.67C1508.69 198.232 1508.92 198.802 1509.35 199.203C1509.79 199.604 1510.39 199.805 1511.15 199.805C1512 199.805 1512.79 199.549 1513.5 199.039V200.5C1512.77 200.958 1511.81 201.188 1510.61 201.188C1509.43 201.188 1508.51 200.826 1507.84 200.102C1507.17 199.372 1506.84 198.349 1506.84 197.031C1506.84 195.786 1507.21 194.773 1507.94 193.992C1508.68 193.206 1509.6 192.812 1510.69 192.812C1511.78 192.812 1512.63 193.164 1513.23 193.867C1513.83 194.57 1514.13 195.547 1514.13 196.797V197.492ZM1512.38 196.211C1512.37 195.56 1512.22 195.055 1511.92 194.695C1511.61 194.331 1511.2 194.148 1510.67 194.148C1510.15 194.148 1509.7 194.339 1509.34 194.719C1508.98 195.099 1508.76 195.596 1508.67 196.211H1512.38ZM1517.35 201H1515.53V189.156H1517.35V201ZM1525.54 201H1523.78V199.75H1523.75C1523.2 200.708 1522.39 201.188 1521.32 201.188C1520.54 201.188 1519.92 200.974 1519.47 200.547C1519.03 200.12 1518.81 199.555 1518.81 198.852C1518.81 197.341 1519.68 196.461 1521.42 196.211L1523.79 195.875C1523.79 194.734 1523.25 194.164 1522.17 194.164C1521.21 194.164 1520.35 194.492 1519.59 195.148V193.562C1520.43 193.062 1521.41 192.812 1522.51 192.812C1524.53 192.812 1525.54 193.807 1525.54 195.797V201ZM1523.79 197.07L1522.11 197.305C1521.59 197.372 1521.2 197.5 1520.93 197.688C1520.67 197.87 1520.54 198.193 1520.54 198.656C1520.54 198.995 1520.66 199.273 1520.9 199.492C1521.15 199.706 1521.47 199.812 1521.88 199.812C1522.43 199.812 1522.89 199.62 1523.24 199.234C1523.61 198.844 1523.79 198.354 1523.79 197.766V197.07ZM1534.37 193L1530.76 202.281C1530.01 203.938 1528.96 204.766 1527.6 204.766C1527.22 204.766 1526.91 204.732 1526.65 204.664V203.156C1526.94 203.25 1527.2 203.297 1527.43 203.297C1528.11 203.297 1528.61 202.964 1528.95 202.297L1529.49 200.984L1526.31 193H1528.32L1530.22 198.812C1530.24 198.885 1530.29 199.078 1530.36 199.391H1530.4C1530.43 199.271 1530.47 199.083 1530.54 198.828L1532.54 193H1534.37ZM1541.91 197.492H1536.46C1536.48 198.232 1536.7 198.802 1537.14 199.203C1537.57 199.604 1538.17 199.805 1538.93 199.805C1539.79 199.805 1540.57 199.549 1541.28 199.039V200.5C1540.56 200.958 1539.59 201.188 1538.39 201.188C1537.22 201.188 1536.29 200.826 1535.62 200.102C1534.95 199.372 1534.62 198.349 1534.62 197.031C1534.62 195.786 1534.99 194.773 1535.72 193.992C1536.46 193.206 1537.38 192.812 1538.47 192.812C1539.57 192.812 1540.41 193.164 1541.01 193.867C1541.61 194.57 1541.91 195.547 1541.91 196.797V197.492ZM1540.16 196.211C1540.15 195.56 1540 195.055 1539.7 194.695C1539.4 194.331 1538.98 194.148 1538.45 194.148C1537.93 194.148 1537.48 194.339 1537.12 194.719C1536.76 195.099 1536.54 195.596 1536.46 196.211H1540.16ZM1550.59 201H1548.78V199.641H1548.75C1548.16 200.672 1547.26 201.188 1546.05 201.188C1545.07 201.188 1544.28 200.831 1543.68 200.117C1543.09 199.398 1542.8 198.422 1542.8 197.188C1542.8 195.865 1543.13 194.805 1543.78 194.008C1544.43 193.211 1545.31 192.812 1546.39 192.812C1547.47 192.812 1548.26 193.245 1548.75 194.109H1548.78V189.156H1550.59V201ZM1548.8 197.344V196.297C1548.8 195.729 1548.62 195.247 1548.25 194.852C1547.88 194.456 1547.4 194.258 1546.83 194.258C1546.15 194.258 1545.62 194.51 1545.23 195.016C1544.84 195.521 1544.65 196.221 1544.65 197.117C1544.65 197.93 1544.84 198.573 1545.21 199.047C1545.58 199.516 1546.08 199.75 1546.71 199.75C1547.33 199.75 1547.84 199.523 1548.22 199.07C1548.61 198.612 1548.8 198.036 1548.8 197.344ZM1561.36 194.727C1561.14 194.555 1560.83 194.469 1560.42 194.469C1559.88 194.469 1559.43 194.711 1559.07 195.195C1558.71 195.68 1558.54 196.339 1558.54 197.172V201H1556.72V193H1558.54V194.648H1558.57C1558.74 194.086 1559.01 193.648 1559.38 193.336C1559.75 193.018 1560.16 192.859 1560.61 192.859C1560.94 192.859 1561.19 192.909 1561.36 193.008V194.727ZM1568.96 197.492H1563.5C1563.53 198.232 1563.75 198.802 1564.18 199.203C1564.62 199.604 1565.22 199.805 1565.98 199.805C1566.84 199.805 1567.62 199.549 1568.33 199.039V200.5C1567.6 200.958 1566.64 201.188 1565.44 201.188C1564.26 201.188 1563.34 200.826 1562.67 200.102C1562 199.372 1561.67 198.349 1561.67 197.031C1561.67 195.786 1562.04 194.773 1562.77 193.992C1563.51 193.206 1564.43 192.812 1565.52 192.812C1566.61 192.812 1567.46 193.164 1568.06 193.867C1568.66 194.57 1568.96 195.547 1568.96 196.797V197.492ZM1567.21 196.211C1567.2 195.56 1567.05 195.055 1566.75 194.695C1566.44 194.331 1566.03 194.148 1565.5 194.148C1564.98 194.148 1564.53 194.339 1564.17 194.719C1563.81 195.099 1563.59 195.596 1563.5 196.211H1567.21ZM1576.5 201H1574.75V199.75H1574.72C1574.16 200.708 1573.35 201.188 1572.29 201.188C1571.5 201.188 1570.88 200.974 1570.43 200.547C1569.99 200.12 1569.77 199.555 1569.77 198.852C1569.77 197.341 1570.64 196.461 1572.38 196.211L1574.75 195.875C1574.75 194.734 1574.21 194.164 1573.13 194.164C1572.18 194.164 1571.32 194.492 1570.55 195.148V193.562C1571.4 193.062 1572.37 192.812 1573.47 192.812C1575.49 192.812 1576.5 193.807 1576.5 195.797V201ZM1574.75 197.07L1573.07 197.305C1572.55 197.372 1572.16 197.5 1571.9 197.688C1571.63 197.87 1571.5 198.193 1571.5 198.656C1571.5 198.995 1571.62 199.273 1571.86 199.492C1572.11 199.706 1572.43 199.812 1572.84 199.812C1573.39 199.812 1573.85 199.62 1574.21 199.234C1574.57 198.844 1574.75 198.354 1574.75 197.766V197.07ZM1577.9 200.75V199.07C1578.58 199.586 1579.33 199.844 1580.15 199.844C1581.24 199.844 1581.79 199.521 1581.79 198.875C1581.79 198.693 1581.74 198.539 1581.65 198.414C1581.55 198.284 1581.42 198.169 1581.26 198.07C1581.11 197.971 1580.92 197.883 1580.7 197.805C1580.49 197.727 1580.25 197.638 1579.98 197.539C1579.65 197.409 1579.36 197.271 1579.09 197.125C1578.83 196.979 1578.61 196.815 1578.43 196.633C1578.26 196.445 1578.13 196.234 1578.04 196C1577.96 195.766 1577.91 195.492 1577.91 195.18C1577.91 194.794 1578 194.456 1578.18 194.164C1578.37 193.867 1578.61 193.62 1578.92 193.422C1579.23 193.219 1579.58 193.068 1579.97 192.969C1580.36 192.865 1580.76 192.812 1581.18 192.812C1581.92 192.812 1582.58 192.924 1583.16 193.148V194.734C1582.6 194.349 1581.95 194.156 1581.22 194.156C1580.99 194.156 1580.79 194.18 1580.6 194.227C1580.42 194.273 1580.26 194.339 1580.13 194.422C1580 194.505 1579.9 194.607 1579.83 194.727C1579.75 194.841 1579.72 194.969 1579.72 195.109C1579.72 195.281 1579.75 195.427 1579.83 195.547C1579.9 195.667 1580 195.773 1580.15 195.867C1580.29 195.956 1580.46 196.039 1580.66 196.117C1580.86 196.19 1581.1 196.271 1581.36 196.359C1581.7 196.5 1582.01 196.643 1582.28 196.789C1582.55 196.935 1582.79 197.102 1582.98 197.289C1583.17 197.471 1583.32 197.685 1583.43 197.93C1583.53 198.169 1583.58 198.456 1583.58 198.789C1583.58 199.195 1583.49 199.549 1583.3 199.852C1583.11 200.154 1582.86 200.404 1582.55 200.602C1582.24 200.799 1581.88 200.945 1581.47 201.039C1581.06 201.138 1580.63 201.188 1580.18 201.188C1579.3 201.188 1578.54 201.042 1577.9 200.75ZM1588.54 201.188C1587.3 201.188 1586.32 200.815 1585.58 200.07C1584.84 199.32 1584.47 198.328 1584.47 197.094C1584.47 195.75 1584.86 194.701 1585.62 193.945C1586.39 193.19 1587.43 192.812 1588.73 192.812C1589.98 192.812 1590.96 193.18 1591.65 193.914C1592.35 194.648 1592.7 195.667 1592.7 196.969C1592.7 198.245 1592.32 199.268 1591.57 200.039C1590.82 200.805 1589.81 201.188 1588.54 201.188ZM1588.62 194.258C1587.91 194.258 1587.35 194.505 1586.94 195C1586.53 195.495 1586.33 196.177 1586.33 197.047C1586.33 197.885 1586.53 198.547 1586.95 199.031C1587.37 199.51 1587.92 199.75 1588.62 199.75C1589.34 199.75 1589.88 199.513 1590.26 199.039C1590.65 198.565 1590.84 197.891 1590.84 197.016C1590.84 196.135 1590.65 195.456 1590.26 194.977C1589.88 194.497 1589.34 194.258 1588.62 194.258ZM1601.36 201H1599.54V196.492C1599.54 194.997 1599.02 194.25 1597.96 194.25C1597.41 194.25 1596.95 194.458 1596.59 194.875C1596.23 195.286 1596.05 195.807 1596.05 196.438V201H1594.23V193H1596.05V194.328H1596.08C1596.68 193.318 1597.55 192.812 1598.68 192.812C1599.55 192.812 1600.21 193.096 1600.67 193.664C1601.13 194.227 1601.36 195.042 1601.36 196.109V201Z" fill="#FFFAEC"/>
<path d="M55.8789 57H52.8203L51.3086 52.7227H44.6992L43.2461 57H40.1992L46.4922 40.1953H49.6328L55.8789 57ZM50.5703 50.4492L48.2383 43.7461C48.168 43.5273 48.0938 43.1758 48.0156 42.6914H47.9688C47.8984 43.1367 47.8203 43.4883 47.7344 43.7461L45.4258 50.4492H50.5703ZM58.7856 42.4805C58.3403 42.4805 57.9575 42.3359 57.6372 42.0469C57.3247 41.7578 57.1684 41.3906 57.1684 40.9453C57.1684 40.5 57.3247 40.1289 57.6372 39.832C57.9575 39.5352 58.3403 39.3867 58.7856 39.3867C59.2466 39.3867 59.6372 39.5352 59.9575 39.832C60.2778 40.1289 60.438 40.5 60.438 40.9453C60.438 41.3672 60.2778 41.7305 59.9575 42.0352C59.6372 42.332 59.2466 42.4805 58.7856 42.4805ZM60.1333 57H57.4145V45H60.1333V57ZM70.1767 47.5898C69.8486 47.332 69.3759 47.2031 68.7588 47.2031C67.9541 47.2031 67.2822 47.5664 66.7431 48.293C66.2041 49.0195 65.9345 50.0078 65.9345 51.2578V57H63.2158V45H65.9345V47.4727H65.9814C66.247 46.6289 66.6533 45.9727 67.2002 45.5039C67.7548 45.0273 68.372 44.7891 69.0517 44.7891C69.5439 44.7891 69.9189 44.8633 70.1767 45.0117V47.5898ZM74.3491 57H71.6186V39.2344H74.3491V57ZM78.7909 42.4805C78.3456 42.4805 77.9628 42.3359 77.6425 42.0469C77.33 41.7578 77.1738 41.3906 77.1738 40.9453C77.1738 40.5 77.33 40.1289 77.6425 39.832C77.9628 39.5352 78.3456 39.3867 78.7909 39.3867C79.2519 39.3867 79.6425 39.5352 79.9628 39.832C80.2831 40.1289 80.4433 40.5 80.4433 40.9453C80.4433 41.3672 80.2831 41.7305 79.9628 42.0352C79.6425 42.332 79.2519 42.4805 78.7909 42.4805ZM80.1386 57H77.4198V45H80.1386V57ZM93.9086 57H91.1898V50.2383C91.1898 47.9961 90.3969 46.875 88.8109 46.875C87.9828 46.875 87.2992 47.1875 86.7602 47.8125C86.2211 48.4297 85.9516 49.2109 85.9516 50.1562V57H83.2211V45H85.9516V46.9922H85.9984C86.8969 45.4766 88.1937 44.7188 89.8891 44.7188C91.1937 44.7188 92.1898 45.1445 92.8773 45.9961C93.5648 46.8398 93.9086 48.0625 93.9086 49.6641V57ZM106.917 51.7383H98.7372C98.7684 52.8477 99.1083 53.7031 99.7567 54.3047C100.413 54.9062 101.311 55.207 102.452 55.207C103.733 55.207 104.909 54.8242 105.979 54.0586V56.25C104.886 56.9375 103.44 57.2812 101.643 57.2812C99.8778 57.2812 98.4911 56.7383 97.4833 55.6523C96.4833 54.5586 95.9833 53.0234 95.9833 51.0469C95.9833 49.1797 96.5341 47.6602 97.6356 46.4883C98.745 45.3086 100.12 44.7188 101.761 44.7188C103.401 44.7188 104.671 45.2461 105.569 46.3008C106.468 47.3555 106.917 48.8203 106.917 50.6953V51.7383ZM104.292 49.8164C104.284 48.8398 104.054 48.082 103.6 47.543C103.147 46.9961 102.522 46.7227 101.725 46.7227C100.944 46.7227 100.28 47.0078 99.7333 47.5781C99.1942 48.1484 98.8622 48.8945 98.7372 49.8164H104.292ZM115.461 57V40.1953H120.312C126.508 40.1953 129.605 42.9258 129.605 48.3867C129.605 50.9805 128.746 53.0664 127.027 54.6445C125.308 56.2148 123.004 57 120.113 57H115.461ZM118.238 42.5625V54.6445H120.465C122.426 54.6445 123.949 54.1055 125.035 53.0273C126.129 51.9492 126.676 50.4258 126.676 48.457C126.676 44.5273 124.64 42.5625 120.57 42.5625H118.238ZM142.063 51.7383H133.883C133.914 52.8477 134.254 53.7031 134.903 54.3047C135.559 54.9062 136.457 55.207 137.598 55.207C138.879 55.207 140.055 54.8242 141.125 54.0586V56.25C140.032 56.9375 138.586 57.2812 136.789 57.2812C135.024 57.2812 133.637 56.7383 132.629 55.6523C131.629 54.5586 131.129 53.0234 131.129 51.0469C131.129 49.1797 131.68 47.6602 132.782 46.4883C133.891 45.3086 135.266 44.7188 136.907 44.7188C138.547 44.7188 139.817 45.2461 140.715 46.3008C141.614 47.3555 142.063 48.8203 142.063 50.6953V51.7383ZM139.438 49.8164C139.43 48.8398 139.2 48.082 138.746 47.543C138.293 46.9961 137.668 46.7227 136.871 46.7227C136.09 46.7227 135.426 47.0078 134.879 47.5781C134.34 48.1484 134.008 48.8945 133.883 49.8164H139.438ZM146.903 57H144.173V39.2344H146.903V57ZM159.185 57H156.548V55.125H156.501C155.673 56.5625 154.458 57.2812 152.857 57.2812C151.677 57.2812 150.751 56.9609 150.079 56.3203C149.415 55.6797 149.083 54.832 149.083 53.7773C149.083 51.5117 150.388 50.1914 152.997 49.8164L156.56 49.3125C156.56 47.6016 155.747 46.7461 154.122 46.7461C152.693 46.7461 151.404 47.2383 150.255 48.2227V45.8438C151.521 45.0938 152.982 44.7188 154.638 44.7188C157.669 44.7188 159.185 46.2109 159.185 49.1953V57ZM156.56 51.1055L154.04 51.457C153.259 51.5586 152.669 51.75 152.271 52.0312C151.88 52.3047 151.685 52.7891 151.685 53.4844C151.685 53.9922 151.865 54.4102 152.224 54.7383C152.591 55.0586 153.079 55.2188 153.689 55.2188C154.517 55.2188 155.2 54.9297 155.74 54.3516C156.286 53.7656 156.56 53.0312 156.56 52.1484V51.1055ZM172.427 45L167.013 58.9219C165.888 61.4062 164.31 62.6484 162.279 62.6484C161.709 62.6484 161.232 62.5977 160.849 62.4961V60.2344C161.279 60.375 161.67 60.4453 162.021 60.4453C163.037 60.4453 163.795 59.9453 164.295 58.9453L165.103 56.9766L160.334 45H163.345L166.205 53.7188C166.236 53.8281 166.306 54.1172 166.416 54.5859H166.474C166.513 54.4062 166.584 54.125 166.685 53.7422L169.685 45H172.427ZM193.182 57H189.925L187.241 52.5C186.999 52.0859 186.76 51.7344 186.526 51.4453C186.3 51.1484 186.065 50.9062 185.823 50.7188C185.589 50.5312 185.331 50.3945 185.05 50.3086C184.768 50.2227 184.452 50.1797 184.1 50.1797H182.975V57H180.198V40.1953H185.729C186.518 40.1953 187.245 40.2891 187.909 40.4766C188.573 40.6641 189.151 40.9492 189.643 41.332C190.135 41.707 190.518 42.1797 190.792 42.75C191.073 43.3125 191.214 43.9727 191.214 44.7305C191.214 45.3242 191.124 45.8711 190.944 46.3711C190.772 46.8633 190.522 47.3047 190.194 47.6953C189.874 48.0781 189.483 48.4062 189.022 48.6797C188.569 48.9531 188.057 49.1641 187.487 49.3125V49.3594C187.792 49.5312 188.057 49.7227 188.284 49.9336C188.51 50.1367 188.725 50.3477 188.928 50.5664C189.132 50.7852 189.331 51.0352 189.526 51.3164C189.729 51.5898 189.952 51.9102 190.194 52.2773L193.182 57ZM182.975 42.457V47.918H185.296C185.725 47.918 186.12 47.8516 186.479 47.7188C186.846 47.5859 187.163 47.3945 187.428 47.1445C187.694 46.8945 187.901 46.5898 188.05 46.2305C188.198 45.8711 188.272 45.4688 188.272 45.0234C188.272 44.2188 188.018 43.5898 187.51 43.1367C187.003 42.6836 186.272 42.457 185.319 42.457H182.975ZM203.894 51.7383H195.714C195.745 52.8477 196.085 53.7031 196.734 54.3047C197.39 54.9062 198.288 55.207 199.429 55.207C200.71 55.207 201.886 54.8242 202.956 54.0586V56.25C201.863 56.9375 200.417 57.2812 198.62 57.2812C196.855 57.2812 195.468 56.7383 194.46 55.6523C193.46 54.5586 192.96 53.0234 192.96 51.0469C192.96 49.1797 193.511 47.6602 194.613 46.4883C195.722 45.3086 197.097 44.7188 198.738 44.7188C200.378 44.7188 201.648 45.2461 202.546 46.3008C203.445 47.3555 203.894 48.8203 203.894 50.6953V51.7383ZM201.269 49.8164C201.261 48.8398 201.03 48.082 200.577 47.543C200.124 46.9961 199.499 46.7227 198.702 46.7227C197.921 46.7227 197.257 47.0078 196.71 47.5781C196.171 48.1484 195.839 48.8945 195.714 49.8164H201.269ZM208.769 55.2305H208.722V62.5195H206.004V45H208.722V47.1094H208.769C209.699 45.5156 211.058 44.7188 212.847 44.7188C214.371 44.7188 215.558 45.2539 216.41 46.3242C217.261 47.3945 217.687 48.832 217.687 50.6367C217.687 52.6367 217.207 54.2383 216.246 55.4414C215.285 56.6445 213.972 57.2461 212.308 57.2461C210.777 57.2461 209.597 56.5742 208.769 55.2305ZM208.699 50.4961V51.9844C208.699 52.8594 208.976 53.6016 209.531 54.2109C210.093 54.8203 210.804 55.125 211.664 55.125C212.672 55.125 213.461 54.7344 214.031 53.9531C214.609 53.1641 214.898 52.0664 214.898 50.6602C214.898 49.4805 214.629 48.5586 214.09 47.8945C213.558 47.2227 212.836 46.8867 211.922 46.8867C210.953 46.8867 210.172 47.2305 209.578 47.918C208.992 48.6055 208.699 49.4648 208.699 50.4961ZM225.305 57.2812C223.453 57.2812 221.973 56.7227 220.863 55.6055C219.762 54.4805 219.211 52.9922 219.211 51.1406C219.211 49.125 219.785 47.5508 220.934 46.418C222.09 45.2852 223.645 44.7188 225.598 44.7188C227.473 44.7188 228.934 45.2695 229.981 46.3711C231.027 47.4727 231.551 49 231.551 50.9531C231.551 52.8672 230.985 54.4023 229.852 55.5586C228.727 56.707 227.211 57.2812 225.305 57.2812ZM225.434 46.8867C224.371 46.8867 223.531 47.2578 222.914 48C222.297 48.7422 221.988 49.7656 221.988 51.0703C221.988 52.3281 222.301 53.3203 222.926 54.0469C223.551 54.7656 224.387 55.125 225.434 55.125C226.504 55.125 227.324 54.7695 227.895 54.0586C228.473 53.3477 228.762 52.3359 228.762 51.0234C228.762 49.7031 228.473 48.6836 227.895 47.9648C227.324 47.2461 226.504 46.8867 225.434 46.8867ZM240.809 47.5898C240.481 47.332 240.008 47.2031 239.391 47.2031C238.587 47.2031 237.915 47.5664 237.376 48.293C236.837 49.0195 236.567 50.0078 236.567 51.2578V57H233.848V45H236.567V47.4727H236.614C236.88 46.6289 237.286 45.9727 237.833 45.5039C238.387 45.0273 239.005 44.7891 239.684 44.7891C240.176 44.7891 240.551 44.8633 240.809 45.0117V47.5898ZM249.282 56.8711C248.751 57.1367 248.052 57.2695 247.185 57.2695C244.857 57.2695 243.693 56.1523 243.693 53.918V47.1328H241.689V45H243.693V42.2227L246.411 41.4492V45H249.282V47.1328H246.411V53.1328C246.411 53.8438 246.54 54.3516 246.798 54.6562C247.056 54.9609 247.485 55.1133 248.087 55.1133C248.548 55.1133 248.946 54.9805 249.282 54.7148V56.8711Z" fill="#3D3D3D"/>
</svg>
